<svg width="215" height="38" viewBox="0 0 215 38" fill="none" xmlns="http://www.w3.org/2000/svg">
<g clip-path="url(#clip0_134_74)">
<mask id="mask0_134_74" style="mask-type:luminance" maskUnits="userSpaceOnUse" x="0" y="0" width="215" height="38">
<path d="M214.2 0H0V37.24H214.2V0Z" fill="white"/>
</mask>
<g mask="url(#mask0_134_74)">
<path d="M205.69 25.54C210.69 25.54 214.19 22.89 214.19 18.43V18.36C214.19 14.42 211.57 12.61 206.54 11.39C201.98 10.3 200.9 9.48999 200.9 7.64999V7.57999C200.9 6.01999 202.33 4.75999 204.78 4.75999C206.96 4.75999 209.1 5.60999 211.24 7.20999L213.48 4.04999C211.07 2.10999 208.31 1.05999 204.84 1.05999C200.11 1.05999 196.71 3.87999 196.71 7.95999V8.02999C196.71 12.42 199.57 13.91 204.63 15.14C209.05 16.16 210 17.08 210 18.78V18.85C210 20.65 208.37 21.84 205.78 21.84C202.82 21.84 200.54 20.72 198.27 18.75L195.75 21.74C198.61 24.29 202.04 25.55 205.68 25.55M173.05 25.2H177.23V18.3L180.94 14.49L189.07 25.2H194.14L183.8 11.63L193.69 1.39999H188.56L177.24 13.37V1.39999H173.06V25.2H173.05ZM155.58 21.77C150.85 21.77 147.49 17.93 147.49 13.3V13.23C147.49 8.60999 150.79 4.82999 155.51 4.82999C160.23 4.82999 163.6 8.66999 163.6 13.3V13.37C163.6 17.99 160.3 21.77 155.58 21.77ZM155.51 25.61C162.82 25.61 167.99 20 167.99 13.3V13.23C167.99 6.52999 162.89 0.98999 155.58 0.98999C148.27 0.98999 143.1 6.59999 143.1 13.3V13.37C143.1 20.07 148.2 25.61 155.51 25.61ZM126.68 21.77C121.95 21.77 118.59 17.93 118.59 13.3V13.23C118.59 8.60999 121.89 4.82999 126.61 4.82999C131.33 4.82999 134.7 8.66999 134.7 13.3V13.37C134.7 17.99 131.4 21.77 126.68 21.77ZM126.61 25.61C133.92 25.61 139.09 20 139.09 13.3V13.23C139.09 6.52999 133.99 0.98999 126.68 0.98999C119.37 0.98999 114.2 6.59999 114.2 13.3V13.37C114.2 20.07 119.3 25.61 126.61 25.61ZM94.8201 21.49V14.96H101.45C104.75 14.96 106.35 16.15 106.35 18.16V18.23C106.35 20.37 104.62 21.49 101.76 21.49H94.8201ZM94.8201 11.43V5.10999H100.84C103.53 5.10999 105.02 6.26999 105.02 8.13999V8.20999C105.02 10.39 103.22 11.44 100.53 11.44H94.8201V11.43ZM90.7101 25.2H101.73C107.03 25.2 110.54 22.92 110.54 18.67V18.6C110.54 15.37 108.6 13.77 105.81 12.82C107.58 11.9 109.21 10.37 109.21 7.51999V7.44999C109.21 5.84999 108.67 4.55999 107.61 3.50999C106.25 2.14999 104.11 1.39999 101.39 1.39999H90.7101V25.2ZM65.9901 25.2H85.4701V21.49H71.4301L85.4701 4.48999V1.39999H66.4301V5.10999H80.0301L65.9901 22.11V25.2ZM44.0601 25.2H61.8801V21.46H48.2501V15.07H60.1801V11.33H48.2501V5.13999H61.7101V1.39999H44.0601V25.2Z" fill="white"/>
</g>
<path d="M0 27.79V36.59H36.89V28.55H32.7V32.7H4.53V27.79H0Z" fill="white"/>
<path d="M0 0V9.47H4.53V4.53H32.7V9.85H36.89V0H0Z" fill="white"/>
<path d="M13.3898 17.64L8.0498 30.67H13.3898L18.6798 17.75V17.64H13.3898Z" fill="#D5AF30"/>
<path d="M24.5199 9.17999L15.6099 30.67H20.9599L29.8599 9.17999H24.5199Z" fill="#D5AF30"/>
<mask id="mask1_134_74" style="mask-type:luminance" maskUnits="userSpaceOnUse" x="0" y="0" width="215" height="38">
<path d="M214.2 0H0V37.24H214.2V0Z" fill="white"/>
</mask>
<g mask="url(#mask1_134_74)">
<path d="M208.91 35.96C209.88 35.96 210.58 35.41 210.58 34.57C210.58 33.81 210.08 33.41 208.98 33.17C207.9 32.94 207.65 32.68 207.65 32.22C207.65 31.76 208.06 31.41 208.69 31.41C209.19 31.41 209.65 31.57 210.1 31.94L210.42 31.51C209.92 31.11 209.41 30.91 208.7 30.91C207.77 30.91 207.09 31.48 207.09 32.25C207.09 33.07 207.61 33.43 208.73 33.68C209.76 33.9 210 34.16 210 34.61C210 35.11 209.57 35.46 208.91 35.46C208.25 35.46 207.74 35.23 207.23 34.77L206.89 35.18C207.48 35.7 208.11 35.96 208.89 35.96M202.89 35.89H206.2V35.38H203.44V30.99H202.89V35.89ZM198.31 34.1L199.43 31.6L200.54 34.1H198.31ZM196.94 35.89H197.51L198.09 34.59H200.76L201.33 35.89H201.92L199.69 30.96H199.17L196.94 35.89ZM195.37 35.89H195.92V30.99H195.37V35.89ZM192.4 35.97C193.29 35.97 193.85 35.63 194.36 35.11L194 34.75C193.53 35.2 193.09 35.46 192.42 35.46C191.34 35.46 190.52 34.57 190.52 33.44C190.52 32.3 191.33 31.42 192.42 31.42C193.08 31.42 193.55 31.7 193.96 32.09L194.34 31.68C193.85 31.22 193.32 30.9 192.43 30.9C190.99 30.9 189.95 32.05 189.95 33.43C189.95 34.85 190.99 35.96 192.41 35.96M184.63 35.89H185.17V31.87L188.33 35.89H188.77V30.99H188.23V34.92L185.14 30.99H184.62V35.89H184.63ZM180.04 34.1L181.16 31.6L182.27 34.1H180.04ZM178.68 35.89H179.25L179.83 34.59H182.5L183.07 35.89H183.67L181.44 30.96H180.92L178.69 35.89H178.68ZM173.57 35.89H174.11V31.87L177.27 35.89H177.71V30.99H177.17V34.92L174.08 30.99H173.56V35.89H173.57ZM171.58 35.89H172.13V30.99H171.58V35.89ZM166.94 35.89H167.49V33.76H170.14V33.26H167.49V31.51H170.46V31H166.94V35.9V35.89ZM161.36 35.89H161.92V33.94L163.96 30.99H163.32L161.65 33.44L160 30.99H159.33L161.37 33.95V35.89H161.36ZM155.36 35.38V31.5H156.51C157.75 31.5 158.54 32.35 158.54 33.44C158.54 34.54 157.75 35.38 156.51 35.38H155.36ZM154.81 35.89H156.51C158.05 35.89 159.11 34.82 159.11 33.44C159.11 32.05 158.05 30.99 156.51 30.99H154.81V35.89ZM150.23 34.1L151.35 31.6L152.46 34.1H150.23ZM148.86 35.89H149.43L150.01 34.59H152.68L153.25 35.89H153.85L151.62 30.96H151.1L148.87 35.89H148.86ZM144.59 35.89H148.17V35.39H145.15V33.67H147.82V33.17H145.15V31.5H148.14V31H144.6V35.9L144.59 35.89ZM140.08 33.49V31.5H141.59C142.38 31.5 142.84 31.86 142.84 32.47C142.84 33.11 142.32 33.49 141.58 33.49H140.07H140.08ZM139.53 35.89H140.08V33.99H141.48L142.9 35.89H143.58L142.08 33.89C142.85 33.75 143.41 33.27 143.41 32.46C143.41 32.06 143.27 31.72 143.03 31.48C142.72 31.17 142.24 30.99 141.64 30.99H139.53V35.89ZM136.44 34.07H138.39V33.5H136.44V34.07ZM132.16 33.49V31.5H133.67C134.46 31.5 134.92 31.86 134.92 32.47C134.92 33.11 134.39 33.49 133.66 33.49H132.15H132.16ZM131.61 35.89H132.16V33.99H133.56L134.98 35.89H135.66L134.16 33.89C134.93 33.75 135.49 33.27 135.49 32.46C135.49 32.06 135.35 31.72 135.11 31.48C134.8 31.17 134.32 30.99 133.72 30.99H131.61V35.89ZM126.92 35.89H130.5V35.39H127.48V33.67H130.15V33.17H127.48V31.5H130.47V31H126.93V35.9L126.92 35.89ZM122 35.38V31.5H123.15C124.39 31.5 125.18 32.35 125.18 33.44C125.18 34.54 124.39 35.38 123.15 35.38H122ZM121.45 35.89H123.15C124.69 35.89 125.75 34.82 125.75 33.44C125.75 32.05 124.69 30.99 123.15 30.99H121.45V35.89ZM115.92 35.89H116.46V31.87L119.62 35.89H120.06V30.99H119.52V34.92L116.43 30.99H115.91V35.89H115.92ZM111.23 35.89H114.81V35.39H111.79V33.67H114.46V33.17H111.79V31.5H114.78V31H111.24V35.9L111.23 35.89ZM106.9 35.89H110.21V35.38H107.45V30.99H106.9V35.89ZM101.13 35.49C100.53 35.49 100.11 35.09 100.11 34.57C100.11 34.14 100.4 33.74 101.05 33.5L102.36 34.85C102 35.24 101.6 35.49 101.13 35.49ZM101.26 32.98C100.89 32.58 100.77 32.36 100.77 32.08C100.77 31.67 101.07 31.36 101.51 31.36C101.91 31.36 102.2 31.65 102.2 32.04C102.2 32.47 101.88 32.77 101.26 32.98ZM103.46 35.98L103.88 35.66L103.03 34.78C103.3 34.43 103.52 34.01 103.74 33.55L103.28 33.34C103.11 33.75 102.91 34.12 102.69 34.43L101.57 33.29C102.28 33.04 102.72 32.64 102.72 32.02C102.72 31.4 102.22 30.9 101.53 30.9C100.75 30.9 100.24 31.42 100.24 32.06C100.24 32.46 100.39 32.76 100.73 33.15C99.9799 33.44 99.5499 33.91 99.5499 34.56C99.5499 35.39 100.21 35.95 101.09 35.95C101.73 35.95 102.24 35.67 102.69 35.19L103.46 35.98ZM94.6099 35.97C95.4399 35.97 96.1199 35.63 96.5799 35.22V33.27H94.5599V33.77H96.0499V34.99C95.7099 35.26 95.1999 35.48 94.6299 35.48C93.4399 35.48 92.6899 34.61 92.6899 33.44C92.6899 32.33 93.4699 31.42 94.5499 31.42C95.2399 31.42 95.6599 31.65 96.0399 31.98L96.3999 31.56C95.9099 31.15 95.3999 30.91 94.5699 30.91C93.0999 30.91 92.1099 32.1 92.1099 33.44C92.1099 34.85 93.0599 35.97 94.5999 35.97M86.8099 35.89H87.3499V31.87L90.5099 35.89H90.9499V30.99H90.4099V34.92L87.3199 30.99H86.7999V35.89H86.8099ZM84.8199 35.89H85.3699V30.99H84.8199V35.89ZM80.6499 33.65V31.49H81.8899C82.6799 31.49 83.2099 31.85 83.2099 32.55C83.2099 33.21 82.6799 33.64 81.8599 33.64H80.6499V33.65ZM80.0899 35.89H80.6399V34.16H81.8299C82.8699 34.16 83.7599 33.62 83.7599 32.56C83.7599 31.58 83.0299 30.99 81.9299 30.99H80.0999V35.89H80.0899ZM75.3999 35.89H78.9799V35.39H75.9599V33.67H78.6299V33.17H75.9599V31.5H78.9499V31H75.4099V35.9L75.3999 35.89ZM70.7099 35.89H74.2899V35.39H71.2699V33.67H73.9399V33.17H71.2699V31.5H74.2599V31H70.7199V35.9L70.7099 35.89ZM65.6799 35.89H66.2299V34.57L67.2699 33.51L69.1499 35.88H69.8399L67.6499 33.12L69.7499 30.98H69.0399L66.2299 33.91V30.98H65.6799V35.88V35.89ZM60.6499 35.89H61.1999V34.57L62.2399 33.51L64.1199 35.88H64.8099L62.6199 33.12L64.7199 30.98H64.0099L61.1999 33.91V30.98H60.6499V35.88V35.89ZM56.9899 35.46C55.8699 35.46 55.0599 34.55 55.0599 33.44C55.0599 32.31 55.8599 31.42 56.9799 31.42C58.0999 31.42 58.9099 32.33 58.9099 33.44C58.9099 34.57 58.1099 35.46 56.9899 35.46ZM56.9699 35.97C58.4599 35.97 59.4799 34.79 59.4799 33.44C59.4799 32.07 58.4799 30.91 56.9899 30.91C55.4999 30.91 54.4799 32.09 54.4799 33.44C54.4799 34.81 55.4799 35.97 56.9699 35.97ZM51.0399 35.46C49.9199 35.46 49.1099 34.55 49.1099 33.44C49.1099 32.31 49.9099 31.42 51.0299 31.42C52.1499 31.42 52.9599 32.33 52.9599 33.44C52.9599 34.57 52.1599 35.46 51.0399 35.46ZM51.0199 35.97C52.5099 35.97 53.5299 34.79 53.5299 33.44C53.5299 32.07 52.5299 30.91 51.0399 30.91C49.5499 30.91 48.5399 32.09 48.5399 33.44C48.5399 34.81 49.5399 35.97 51.0299 35.97M44.2399 35.39V33.66H45.7899C46.6399 33.66 47.0899 33.97 47.0899 34.5C47.0899 35.06 46.6299 35.39 45.8899 35.39H44.2399ZM44.2399 33.17V31.48H45.7299C46.4299 31.48 46.8199 31.8 46.8199 32.28C46.8199 32.87 46.3599 33.17 45.6899 33.17H44.2399ZM43.6899 35.89H45.8699C46.9399 35.89 47.6499 35.39 47.6499 34.55C47.6499 33.86 47.1799 33.53 46.5999 33.35C46.9899 33.18 47.3799 32.85 47.3799 32.22C47.3799 31.89 47.2699 31.63 47.0699 31.42C46.7899 31.15 46.3499 30.99 45.7899 30.99H43.6999V35.89H43.6899Z" fill="white"/>
</g>
</g>
<defs>
<clipPath id="clip0_134_74">
<rect width="214.2" height="37.24" fill="white"/>
</clipPath>
</defs>
</svg>
